# xmcd
#
# Track frame offsets:
#	150
#	35317
#	57249
#	84198
#	110183
#	136250
#	163174
#	201194
#	225938
#	250197
#	272815
#	304690
#
# Disc length: 4558 seconds
# Revision: 1
# Processed by: cddbd v1.5.2PL0 Copyright (c) Steve Scherf et al.
# Submitted via: dBpowerAMP V12.0
#
DISCID=9b11cc0c
DTITLE=Rory Gallagher - Live at Montreaux
DYEAR=2006
DGENRE=Pop/Rock
TTITLE0=Laundromat
TTITLE1=Tore Down
TTITLE2=I Take What I Want
TTITLE3=Bought and Sold
TTITLE4=Do You Read Me
TTITLE5=Last of the Independents
TTITLE6=Off the Handle
TTITLE7=Mississippi Sheiks
TTITLE8=Out on the Western Plain
TTITLE9=Too Much Alcohol
TTITLE10=Shin Kicker
TTITLE11=Philby
EXTD=
EXTT0=
EXTT1=
EXTT2=
EXTT3=
EXTT4=
EXTT5=
EXTT6=
EXTT7=
EXTT8=
EXTT9=
EXTT10=
EXTT11=
PLAYORDER=
